<svg xmlns="http://www.w3.org/2000/svg" width="24" height="24" viewBox="0 0 24 24"><path d="M12 24c-2.8 0-9-8.7-9-15 0-5 4-9 9-9s9 4 9 9c0 4-2.4 8.2-3.4 9.8-.6.9-3.4 5.2-5.6 5.2zm0-22C8.1 2 5 5.1 5 9c0 5.6 5.6 12.7 7 13 1.4-.3 7-7.4 7-13 0-3.9-3.1-7-7-7z" style="fill: rgb(8, 147, 240);"></path><path d="M12 14c-2.8 0-5-2.2-5-5s2.2-5 5-5 5 2.2 5 5-2.2 5-5 5zm0-8c-1.7 0-3 1.3-3 3s1.3 3 3 3 3-1.3 3-3-1.3-3-3-3z" style="fill: rgb(8, 147, 240);"></path><metadata><rdf:rdf xmlns:rdf="http://www.w3.org/1999/02/22-rdf-syntax-ns#" xmlns:rdfs="http://www.w3.org/2000/01/rdf-schema#" xmlns:dc="http://purl.org/dc/elements/1.1/"><rdf:description about="https://iconscout.com/legal#licenses" dc:title="pin" dc:description="pin" dc:publisher="Iconscout" dc:date="2017-09-14" dc:format="image/svg+xml" dc:language="en"><dc:creator><rdf:bag><rdf:li>Cosmin Negoita</rdf:li></rdf:bag></dc:creator></rdf:description></rdf:rdf></metadata></svg>