<svg xmlns="http://www.w3.org/2000/svg" xmlns:xlink="http://www.w3.org/1999/xlink" width="21px" height="20px" viewBox="0 0 21 20" version="1.1"><title>star_favorite [#1499]</title><g id="Page-1" stroke="none" stroke-width="1" fill="none" fill-rule="evenodd"><g id="Dribbble-Light-Preview" transform="translate(-99.000000, -320.000000)" fill="#000" style="fill: rgb(255, 209, 0);"><g id="icons" transform="translate(56.000000, 160.000000)" style="fill: rgb(255, 209, 0);"><path d="M60.556 172.206a1.877 1.877 0 0 0-.547 1.669l.678 3.916c.21 1.219-.766 2.209-1.874 2.209-.292 0-.593-.069-.885-.221l-3.544-1.849a1.918 1.918 0 0 0-1.769 0l-3.544 1.849a1.907 1.907 0 0 1-.885.221c-1.107 0-2.084-.99-1.873-2.209l.677-3.916a1.877 1.877 0 0 0-.547-1.669l-2.867-2.773c-1.128-1.091-.505-2.992 1.053-3.217l3.963-.571a1.897 1.897 0 0 0 1.43-1.032l1.773-3.562A1.88 1.88 0 0 1 53.5 160c.679 0 1.357.35 1.706 1.051l1.772 3.562c.276.557.812.943 1.431 1.032l3.963.571c1.558.225 2.18 2.126 1.053 3.217l-2.868 2.773z" id="star_favorite-[#1499]" style="fill: rgb(255, 209, 0);"></path></g></g></g><metadata><rdf:rdf xmlns:rdf="http://www.w3.org/1999/02/22-rdf-syntax-ns#" xmlns:rdfs="http://www.w3.org/2000/01/rdf-schema#" xmlns:dc="http://purl.org/dc/elements/1.1/"><rdf:description about="https://iconscout.com/legal#licenses" dc:title="star,favorite" dc:description="star,favorite" dc:publisher="Iconscout" dc:date="2017-09-15" dc:format="image/svg+xml" dc:language="en"><dc:creator><rdf:bag><rdf:li>Alexandru Stoica</rdf:li></rdf:bag></dc:creator></rdf:description></rdf:rdf></metadata></svg>