<svg xmlns:dc="http://purl.org/dc/elements/1.1/" xmlns:cc="http://creativecommons.org/ns#" xmlns:rdf="http://www.w3.org/1999/02/22-rdf-syntax-ns#" xmlns:svg="http://www.w3.org/2000/svg" xmlns="http://www.w3.org/2000/svg" xmlns:sodipodi="http://sodipodi.sourceforge.net/DTD/sodipodi-0.dtd" xmlns:inkscape="http://www.inkscape.org/namespaces/inkscape" width="16px" height="16px" viewBox="0 0 16 16" id="svg2" version="1.1" inkscape:version="0.91 r13725" sodipodi:docname="58.svg">
  <defs id="defs4">
    <pattern y="0" x="0" height="6" width="6" patternUnits="userSpaceOnUse" id="EMFhbasepattern"></pattern>
    <pattern y="0" x="0" height="6" width="6" patternUnits="userSpaceOnUse" id="EMFhbasepattern-3"></pattern>
    <pattern y="0" x="0" height="6" width="6" patternUnits="userSpaceOnUse" id="EMFhbasepattern-2"></pattern>
    <pattern y="0" x="0" height="6" width="6" patternUnits="userSpaceOnUse" id="EMFhbasepattern-8"></pattern>
  </defs>
  <sodipodi:namedview id="base" pagecolor="#ffffff" bordercolor="#666666" borderopacity="1.0" inkscape:pageopacity="0.0" inkscape:pageshadow="2" inkscape:zoom="15.839192" inkscape:cx="-8.3390364" inkscape:cy="12.068158" inkscape:document-units="px" inkscape:current-layer="layer1" showgrid="true" units="px" inkscape:window-width="1366" inkscape:window-height="715" inkscape:window-x="-8" inkscape:window-y="-8" inkscape:window-maximized="1" inkscape:snap-bbox="true" inkscape:bbox-paths="true" inkscape:bbox-nodes="true" inkscape:snap-bbox-edge-midpoints="true" inkscape:snap-bbox-midpoints="true" inkscape:snap-global="true">
    <inkscape:grid type="xygrid" id="grid3336"></inkscape:grid>
  </sodipodi:namedview>
  
  <g inkscape:label="Layer 1" inkscape:groupmode="layer" id="layer1" transform="translate(0,-1036.3622)" style="fill: rgb(8, 147, 240);">
    <path style="color: rgb(0, 0, 0); font: medium sans-serif; text-indent: 0px; text-align: start; text-decoration: none solid rgb(0, 0, 0); letter-spacing: normal; word-spacing: normal; text-transform: none; direction: ltr; writing-mode: lr-tb; baseline-shift: baseline; text-anchor: start; white-space: normal; clip-rule: nonzero; display: inline; overflow: visible; visibility: visible; opacity: 1; isolation: auto; mix-blend-mode: normal; color-interpolation: sRGB; color-interpolation-filters: linearRGB; fill: rgb(8, 147, 240); fill-opacity: 1; fill-rule: nonzero; stroke: none; stroke-width: 1; stroke-linecap: round; stroke-linejoin: round; stroke-miterlimit: 4; stroke-dasharray: none; stroke-dashoffset: 0; stroke-opacity: 1; color-rendering: auto; image-rendering: auto; shape-rendering: auto; text-rendering: auto;" d="M 7.96875 1 L 7.96875 1.0058594 L 7.953125 1.0058594 C 7.881865 1.0058594 7.6725091 0.98985937 7.4492188 1.0058594 L 6.9863281 1.0390625 L 6.9863281 3.4882812 C 6.9895663 4.7033984 6.1342533 5.7098342 4.9863281 5.9414062 L 4.9863281 5.5 A 0.50004994 0.50004994 0 0 0 4.4863281 5 L 1.4863281 5 A 0.50004994 0.50004994 0 0 0 0.98632812 5.5 L 0.98632812 14.5 A 0.50004994 0.50004994 0 0 0 1.4863281 15 L 4.4863281 15 A 0.50004994 0.50004994 0 0 0 4.9863281 14.5 L 4.9863281 13.714844 C 5.2822312 13.888352 5.6205946 13.994141 5.9863281 13.994141 L 11.986328 13.994141 C 12.540981 13.994141 13.021772 13.739959 13.34375 13.380859 C 13.665728 13.021859 13.856054 12.573834 13.970703 12.115234 L 14.970703 8.1152344 C 15.120737 7.5151344 14.857151 6.9409719 14.462891 6.5761719 C 14.06863 6.2112719 13.540981 5.9941406 12.986328 5.9941406 L 9.9863281 5.9941406 L 9.9863281 2.9941406 C 9.9863281 2.5197406 9.9074131 2.0179344 9.5722656 1.6152344 C 9.237118 1.2125344 8.6808566 1 7.9863281 1 L 7.96875 1 z M 7.9863281 2 C 8.4977997 2 8.6913351 2.1196594 8.8046875 2.2558594 C 8.9180399 2.3920594 8.9863281 2.6376406 8.9863281 2.9941406 L 8.9863281 5.9941406 L 8.9882812 6.9941406 L 12.986328 6.9941406 C 13.262685 6.9941406 13.584821 7.1249938 13.783203 7.3085938 C 13.981585 7.4921938 14.053459 7.6670469 14.001953 7.8730469 L 13.001953 11.873047 C 12.915053 12.220647 12.769501 12.523391 12.599609 12.712891 C 12.429718 12.902291 12.262685 12.994141 11.986328 12.994141 L 5.9863281 12.994141 C 5.4236663 12.994141 4.9863281 12.556841 4.9863281 11.994141 L 4.9863281 11.041016 L 4.9863281 6.9433594 C 6.68204 6.6964802 7.9910057 5.2410819 7.9863281 3.484375 L 7.9863281 2 z M 1.9863281 6 L 3.9863281 6 L 3.9863281 11.041016 L 3.9863281 11.994141 L 3.9863281 14 L 1.9863281 14 L 1.9863281 6 z " transform="translate(0,1036.3622)" id="rect4986"></path>
  </g>

	
	
	<metadata>
		<rdf:rdf xmlns:rdf="http://www.w3.org/1999/02/22-rdf-syntax-ns#" xmlns:rdfs="http://www.w3.org/2000/01/rdf-schema#" xmlns:dc="http://purl.org/dc/elements/1.1/">
			<rdf:description about="https://iconscout.com/legal#licenses" dc:title="Motivation, Energy, Bestluck, Thumbsup, Like, Favourite" dc:description="Motivation, Energy, Bestluck, Thumbsup, Like, Favourite" dc:publisher="Iconscout" dc:date="2016-12-14" dc:format="image/svg+xml" dc:language="en">
				<dc:creator>
					<rdf:bag>
						<rdf:li>Jemis Mali</rdf:li>
					</rdf:bag>
				</dc:creator>
			</rdf:description>
		</rdf:rdf>
    </metadata></svg>